<svg width="24" height="24" viewBox="0 0 24 24" fill="none" xmlns="http://www.w3.org/2000/svg">
<path fill-rule="evenodd" clip-rule="evenodd" d="M12.5346 9.66273C11.4856 10.1645 10.6013 11.1068 10.2004 12.6603C10.1075 13.0202 9.80926 13.3019 9.43657 13.3679C7.09472 13.7827 6.12047 15.5052 6.31364 16.9713C6.41154 17.7144 6.80862 18.4364 7.54556 18.9631C8.28502 19.4915 9.41083 19.852 10.9948 19.7675C12.0902 19.709 14.4982 19.7389 16.5632 19.7645C17.5589 19.7769 18.4749 19.7883 19.1255 19.7883H19.1467L19.1678 19.7895C20.3304 19.8551 21.0821 19.5806 21.5372 19.2226C21.9897 18.8666 22.2151 18.3782 22.246 17.8697C22.3092 16.8304 21.57 15.7534 20.214 15.6855C19.553 15.6524 19.1245 14.9787 19.3505 14.3717C19.823 13.103 19.5953 12.0352 18.9942 11.1984C18.3736 10.3343 17.32 9.67541 16.1078 9.37492C14.8987 9.0752 13.605 9.15074 12.5346 9.66273ZM20.9494 14.2743C21.3243 12.7737 20.9937 11.4109 20.2125 10.3233C19.3444 9.11475 17.9543 8.28724 16.4687 7.91899C14.9801 7.54997 13.3219 7.62339 11.8874 8.30955C10.5132 8.96682 9.39037 10.1661 8.84014 11.9589C5.99642 12.6117 4.53093 14.9241 4.8265 17.1673C4.97866 18.3221 5.59835 19.4152 6.67345 20.1835C7.74603 20.9499 9.22754 21.364 11.0748 21.2653C12.1221 21.2094 14.4102 21.238 16.4426 21.2635C17.4552 21.2762 18.4043 21.288 19.1049 21.2883C20.5271 21.3646 21.6594 21.0349 22.4646 20.4016C23.2764 19.763 23.6881 18.8668 23.7432 17.9608C23.8411 16.3529 22.8073 14.6798 20.9494 14.2743Z" fill="#ADADAD"/>
<path fill-rule="evenodd" clip-rule="evenodd" d="M4.72597 2.74491C5.11506 2.60285 5.54564 2.8031 5.68771 3.19219L6.08978 4.2934C6.23184 4.68249 6.03159 5.11308 5.6425 5.25514C5.25341 5.3972 4.82282 5.19695 4.68076 4.80786L4.27869 3.70665C4.13662 3.31756 4.33688 2.88698 4.72597 2.74491ZM10.4034 3.0368C10.7799 3.20937 10.9453 3.65452 10.7727 4.03107L10.3114 5.03781C10.1388 5.41437 9.69366 5.57973 9.31711 5.40717C8.94055 5.2346 8.77519 4.78945 8.94775 4.4129L9.40912 3.40616C9.58168 3.0296 10.0268 2.86423 10.4034 3.0368ZM9.18464 7.97715C8.4871 7.24413 7.4037 6.95827 6.40384 7.32921C5.05434 7.82986 4.35552 9.34375 4.85599 10.7144C4.96121 11.0026 5.11017 11.2596 5.29181 11.4817C5.55406 11.8023 5.50675 12.2748 5.18614 12.5371C4.86553 12.7993 4.39301 12.752 4.13076 12.4314C3.84387 12.0807 3.61052 11.6768 3.44697 11.2289C2.66634 9.09089 3.75077 6.71357 5.88211 5.92287C7.46673 5.33499 9.177 5.79318 10.2713 6.94312C10.5568 7.24319 10.545 7.71792 10.245 8.00346C9.94491 8.289 9.47018 8.27722 9.18464 7.97715ZM0.587345 6.6755C0.762193 6.3 1.20834 6.13734 1.58384 6.31219L2.58259 6.77725C2.95809 6.95209 3.12075 7.39824 2.9459 7.77374C2.77105 8.14924 2.3249 8.3119 1.9494 8.13705L0.950658 7.672C0.575157 7.49715 0.412496 7.051 0.587345 6.6755ZM2.75381 11.4901C2.89788 11.8785 2.69986 12.3101 2.31151 12.4542L1.26107 12.8439C0.872721 12.9879 0.441107 12.7899 0.297034 12.4016C0.15296 12.0132 0.350986 11.5816 0.739336 11.4375L1.78977 11.0478C2.17812 10.9038 2.60974 11.1018 2.75381 11.4901Z" fill="#ADADAD"/>
</svg>
