<svg width="78" height="78" viewBox="0 0 78 78" fill="none" xmlns="http://www.w3.org/2000/svg">
<path fill-rule="evenodd" clip-rule="evenodd" d="M63.8939 26.0246L68.5272 7.97461L51.1814 11.1005L51.1823 11.1016C45.8904 12.0654 41.8554 17.112 41.8554 23.1929C41.8554 29.9624 46.8559 35.4501 53.0244 35.4501C58.3048 35.4501 62.7293 31.4288 63.8939 26.0246ZM36.8735 32.6003L41.5068 14.5503L24.161 17.6762L24.1619 17.6773C18.87 18.6411 14.835 23.6878 14.835 29.7686C14.835 36.5381 19.8355 42.0259 26.004 42.0259C31.2844 42.0259 35.7089 38.0046 36.8735 32.6003ZM31.0138 60.607C29.8472 66.0082 25.424 70.0264 20.1456 70.0264C13.9771 70.0264 8.97656 64.5387 8.97656 57.7692C8.97656 51.6886 13.0112 46.6421 18.3028 45.678L18.3026 45.6778L35.6483 42.5519L31.0138 60.607ZM59.037 52.8102C57.8724 58.2145 53.4479 62.2358 48.1675 62.2358C41.999 62.2358 36.9985 56.7481 36.9985 49.9786C36.9985 43.8977 41.0335 38.8511 46.3254 37.8873L46.3245 37.8862L63.6703 34.7603L59.037 52.8102Z" fill="#61D3F7"/>
</svg>
