<svg width="78" height="78" viewBox="0 0 78 78" fill="none" xmlns="http://www.w3.org/2000/svg">
<path fill-rule="evenodd" clip-rule="evenodd" d="M23.0786 45.1823C24.7078 45.1823 26.2771 44.9254 27.748 44.4498C30.1196 49.7305 35.4246 53.408 41.5885 53.408C41.6224 53.408 41.6563 53.4079 41.6902 53.4077C42.5797 60.9352 48.9826 66.7738 56.7492 66.7738C65.1244 66.7738 71.9138 59.9844 71.9138 51.6092C71.9138 48.4671 70.9581 45.5482 69.3216 43.1272C70.9581 40.7063 71.9138 37.7874 71.9138 34.6452C71.9138 26.2701 65.1244 19.4807 56.7492 19.4807C55.4826 19.4807 54.2523 19.636 53.0763 19.9285C51.6263 13.0652 45.5344 7.91406 38.2394 7.91406C32.8221 7.91406 28.0682 10.7547 25.3861 15.0277C24.6337 14.9128 23.8631 14.8532 23.0786 14.8532C14.7035 14.8532 7.91406 21.6426 7.91406 30.0178C7.91406 38.3929 14.7035 45.1823 23.0786 45.1823Z" fill="white"/>
</svg>
