<svg width="15" height="22" viewBox="0 0 15 22" fill="none" xmlns="http://www.w3.org/2000/svg">
<path fill-rule="evenodd" clip-rule="evenodd" d="M14.0117 7.58594C14.0117 9.00356 13.5869 10.3219 12.8576 11.4207L12.859 11.4207L7.13457 21.4092L1.35056 11.5262C0.577646 10.4068 0.125 9.04921 0.125 7.58594C0.125 3.75123 3.23365 0.642578 7.06836 0.642578C10.9031 0.642578 14.0117 3.75123 14.0117 7.58594ZM7.04345 11.9072C9.43623 11.9072 11.376 9.96748 11.376 7.5747C11.376 5.18192 9.43623 3.24219 7.04345 3.24219C4.65067 3.24219 2.71094 5.18192 2.71094 7.5747C2.71094 9.96748 4.65067 11.9072 7.04345 11.9072Z" fill="black"/>
</svg>
