<svg width="346" height="288" viewBox="0 0 346 288" fill="none" xmlns="http://www.w3.org/2000/svg">
<path d="M190.129 96.2916C190.129 147.339 148.587 188.722 97.3419 188.722C46.0969 188.722 4.55469 147.339 4.55469 96.2916C4.55469 45.2438 46.0969 3.86133 97.3419 3.86133C148.587 3.86133 190.129 45.2438 190.129 96.2916Z" fill="#E67A4A"/>
<path d="M289.29 117.291C287.297 104.235 281.518 91.6132 271.881 81.1819C246.195 53.3776 202.832 51.6606 175.028 77.3469C170.827 81.2276 167.222 85.5117 164.217 90.0848C138.354 71.7496 102.334 73.3335 78.1166 95.7059C60.1314 112.321 53.0616 136.332 57.2631 158.744C54.4072 160.673 51.6608 162.843 49.0515 165.253C21.2472 190.939 19.5303 234.302 45.2165 262.106C70.9028 289.911 114.265 291.628 142.07 265.941C147.476 260.947 151.896 255.285 155.32 249.198C179.387 259.453 208.275 255.391 228.737 236.488C228.853 236.381 228.968 236.274 229.083 236.166C255.122 258.425 294.283 258.17 320.066 234.351C347.87 208.665 349.587 165.302 323.901 137.498C314.266 127.069 302.144 120.31 289.29 117.291Z" fill="white" fill-opacity="0.5"/>
</svg>
