<svg width="277" height="288" viewBox="0 0 277 288" fill="none" xmlns="http://www.w3.org/2000/svg">
<path fill-rule="evenodd" clip-rule="evenodd" d="M251.482 85.5284L272.308 4.38281L194.266 18.4491L194.267 18.4494C170.461 22.7901 152.311 45.4974 152.311 72.8576C152.311 103.32 174.81 128.014 202.563 128.014C226.344 128.014 246.266 109.883 251.482 85.5284ZM129.851 115.114L150.677 33.9685L72.6353 48.0348L72.6355 48.0351C48.8301 52.3758 30.6803 75.0831 30.6803 102.443C30.6803 132.905 53.1787 157.6 80.9319 157.6C104.713 157.6 124.635 139.469 129.851 115.114ZM103.554 241.131C98.3377 265.485 78.4151 283.616 54.6344 283.616C26.8812 283.616 4.38281 258.922 4.38281 228.46C4.38281 201.1 22.5326 178.392 46.338 174.052L46.3378 174.051L124.38 159.985L103.554 241.131ZM229.562 206.065C224.346 230.42 204.423 248.551 180.643 248.551C152.89 248.551 130.391 223.856 130.391 193.394C130.391 166.034 148.541 143.327 172.346 138.986L172.346 138.986L250.388 124.919L229.562 206.065Z" fill="#61D3F7"/>
</svg>
