<svg width="20" height="21" viewBox="0 0 20 21" fill="none" xmlns="http://www.w3.org/2000/svg">
<path fill-rule="evenodd" clip-rule="evenodd" d="M13.5968 8.90039C13.5968 7.24414 14.8695 5.80859 16.5477 5.80859C18.2142 5.80859 19.4986 7.2317 19.4986 8.90039C19.4986 10.5566 18.2259 11.9922 16.5477 11.9922H12.2031C11.7889 11.9922 11.4531 11.6564 11.4531 11.2422C11.4531 10.828 11.7889 10.4922 12.2031 10.4922H16.5477C17.3076 10.4922 17.9986 9.82098 17.9986 8.90039C17.9986 7.97482 17.303 7.30859 16.5477 7.30859C15.7877 7.30859 15.0968 7.97979 15.0968 8.90039C15.0968 9.3146 14.761 9.65039 14.3468 9.65039C13.9325 9.65039 13.5968 9.3146 13.5968 8.90039Z" fill="#ADADAD"/>
<path fill-rule="evenodd" clip-rule="evenodd" d="M5.95085 6.12311C5.95085 4.1083 7.44198 2.32617 9.45198 2.32617C11.4483 2.32617 12.9531 4.09319 12.9531 6.12311C12.9531 8.13792 11.462 9.92005 9.45198 9.92005H3.20312C2.78891 9.92005 2.45312 9.58427 2.45312 9.17005C2.45312 8.75584 2.78891 8.42005 3.20312 8.42005H9.45198C10.4897 8.42005 11.4531 7.46107 11.4531 6.12311C11.4531 4.77762 10.4829 3.82617 9.45198 3.82617C8.41426 3.82617 7.45085 4.78515 7.45085 6.12311C7.45085 6.53733 7.11506 6.87311 6.70085 6.87311C6.28663 6.87311 5.95085 6.53733 5.95085 6.12311Z" fill="#ADADAD"/>
<path fill-rule="evenodd" clip-rule="evenodd" d="M5.95227 16.1347C5.95227 18.1495 7.4434 19.9316 9.4534 19.9316C11.4498 19.9316 12.9545 18.1646 12.9545 16.1347C12.9545 14.1199 11.4634 12.3378 9.4534 12.3378H0.75C0.335786 12.3378 0 12.6735 0 13.0878C0 13.502 0.335786 13.8378 0.75 13.8378H9.4534C10.4911 13.8378 11.4545 14.7967 11.4545 16.1347C11.4545 17.4802 10.4843 18.4316 9.4534 18.4316C8.41568 18.4316 7.45227 17.4727 7.45227 16.1347C7.45227 15.7205 7.11648 15.3847 6.70227 15.3847C6.28805 15.3847 5.95227 15.7205 5.95227 16.1347Z" fill="#ADADAD"/>
<path opacity="0.9" fill-rule="evenodd" clip-rule="evenodd" d="M17.7412 1.35839C17.9365 1.55365 17.9365 1.87023 17.7412 2.0655L17.0899 2.71678L17.7412 3.36806C17.9365 3.56332 17.9365 3.87991 17.7412 4.07517C17.5459 4.27043 17.2294 4.27043 17.0341 4.07517L16.3828 3.42389L15.7315 4.07517C15.5363 4.27043 15.2197 4.27043 15.0244 4.07517C14.8292 3.87991 14.8292 3.56332 15.0244 3.36806L15.6757 2.71678L15.0244 2.0655C14.8292 1.87023 14.8292 1.55365 15.0244 1.35839C15.2197 1.16313 15.5363 1.16313 15.7315 1.35839L16.3828 2.00967L17.0341 1.35839C17.2294 1.16313 17.5459 1.16313 17.7412 1.35839Z" fill="#ADADAD"/>
<path opacity="0.9" fill-rule="evenodd" clip-rule="evenodd" d="M17.2646 16.124C17.4599 16.3193 17.4599 16.6359 17.2646 16.8311L16.6134 17.4824L17.2646 18.1337C17.4599 18.3289 17.4599 18.6455 17.2646 18.8408C17.0694 19.0361 16.7528 19.0361 16.5575 18.8408L15.9062 18.1895L15.255 18.8408C15.0597 19.0361 14.7431 19.0361 14.5479 18.8408C14.3526 18.6455 14.3526 18.3289 14.5479 18.1337L15.1991 17.4824L14.5479 16.8311C14.3526 16.6359 14.3526 16.3193 14.5479 16.124C14.7431 15.9288 15.0597 15.9288 15.255 16.124L15.9063 16.7753L16.5575 16.124C16.7528 15.9288 17.0694 15.9288 17.2646 16.124Z" fill="#ADADAD"/>
</svg>
