<svg width="21" height="21" viewBox="0 0 21 21" fill="none" xmlns="http://www.w3.org/2000/svg">
<path d="M17.5477 5.75859C15.8386 5.75859 14.5468 7.21985 14.5468 8.90039C14.5468 9.34221 14.9049 9.70039 15.3468 9.70039C15.7886 9.70039 16.1468 9.34221 16.1468 8.90039C16.1468 8.00478 16.8179 7.35859 17.5477 7.35859C18.273 7.35859 18.9486 8.00002 18.9486 8.90039C18.9486 9.79599 18.2775 10.4422 17.5477 10.4422H13.2031C12.7613 10.4422 12.4031 10.8004 12.4031 11.2422C12.4031 11.684 12.7613 12.0422 13.2031 12.0422H17.5477C19.2567 12.0422 20.5486 10.5809 20.5486 8.90039C20.5486 7.20714 19.2448 5.75859 17.5477 5.75859Z" fill="black" stroke="black" stroke-width="0.1" stroke-miterlimit="10" stroke-linecap="round" stroke-linejoin="round"/>
<path d="M10.452 2.27617C8.40928 2.27617 6.90085 4.08606 6.90085 6.12311C6.90085 6.56494 7.25902 6.92311 7.70085 6.92311C8.14267 6.92311 8.50085 6.56494 8.50085 6.12311C8.50085 4.80825 9.44619 3.87617 10.452 3.87617C11.4512 3.87617 12.4031 4.80094 12.4031 6.12311C12.4031 7.43797 11.4578 8.37005 10.452 8.37005H4.20312C3.7613 8.37005 3.40312 8.72823 3.40312 9.17005C3.40312 9.61188 3.7613 9.97006 4.20312 9.97006H10.452C12.4947 9.97006 14.0031 8.16017 14.0031 6.12311C14.0031 4.07067 12.4808 2.27617 10.452 2.27617Z" fill="black" stroke="black" stroke-width="0.1" stroke-miterlimit="10" stroke-linecap="round" stroke-linejoin="round"/>
<path d="M10.4534 19.9816C8.4107 19.9816 6.90227 18.1718 6.90227 16.1347C6.90227 15.6929 7.26044 15.3347 7.70227 15.3347C8.14409 15.3347 8.50227 15.6929 8.50227 16.1347C8.50227 17.4496 9.44761 18.3816 10.4534 18.3816C11.4526 18.3816 12.4045 17.4569 12.4045 16.1347C12.4045 14.8198 11.4592 13.8878 10.4534 13.8878H1.75C1.30817 13.8878 0.95 13.5296 0.95 13.0878C0.95 12.6459 1.30817 12.2878 1.75 12.2878H10.4534C12.4961 12.2878 14.0045 14.0976 14.0045 16.1347C14.0045 18.1871 12.4822 19.9816 10.4534 19.9816Z" fill="black" stroke="black" stroke-width="0.1" stroke-miterlimit="10" stroke-linecap="round" stroke-linejoin="round"/>
<path opacity="0.9" d="M18.7766 2.10085C18.9913 1.88606 18.9913 1.53782 18.7766 1.32303C18.5618 1.10825 18.2135 1.10825 17.9987 1.32303L17.3828 1.93896L16.7669 1.32303C16.5521 1.10825 16.2039 1.10825 15.9891 1.32303C15.7743 1.53782 15.7743 1.88606 15.9891 2.10085L16.605 2.71678L15.9891 3.33271C15.7743 3.54749 15.7743 3.89573 15.9891 4.11052C16.2039 4.32531 16.5521 4.32531 16.7669 4.11052L17.3828 3.4946L17.9987 4.11052C18.2135 4.32531 18.5618 4.32531 18.7766 4.11052C18.9913 3.89573 18.9913 3.54749 18.7766 3.33271L18.1606 2.71678L18.7766 2.10085Z" fill="black" stroke="black" stroke-width="0.1" stroke-linecap="round"/>
<path opacity="0.9" d="M18.3 16.8665C18.5148 16.6517 18.5148 16.3034 18.3 16.0887C18.0852 15.8739 17.737 15.8739 17.5222 16.0887L16.9063 16.7046L16.2903 16.0887C16.0755 15.8739 15.7273 15.8739 15.5125 16.0887C15.2977 16.3034 15.2977 16.6517 15.5125 16.8665L16.1284 17.4824L15.5125 18.0983C15.2977 18.3131 15.2977 18.6614 15.5125 18.8761C15.7273 19.0909 16.0755 19.0909 16.2903 18.8761L16.9062 18.2602L17.5222 18.8761C17.737 19.0909 18.0852 19.0909 18.3 18.8761C18.5148 18.6614 18.5148 18.3131 18.3 18.0983L17.6841 17.4824L18.3 16.8665Z" fill="black" stroke="black" stroke-width="0.1" stroke-linecap="round"/>
</svg>
