<svg width="24" height="24" viewBox="0 0 24 24" fill="none" xmlns="http://www.w3.org/2000/svg">
<path d="M7.16223 17.994L7.13147 18.0334L7.17088 18.0641L9.76857 20.0914C10.0761 20.3798 10.4839 20.545 10.8153 20.6404C11.1814 20.7459 11.5742 20.8 11.9067 20.8H15.1318C15.8345 20.8 16.5282 20.5386 17.0814 20.1305C17.6276 19.7276 18.091 19.1411 18.277 18.4264L20.3027 12.2156C20.3028 12.2154 20.3028 12.2152 20.3029 12.2151C20.5883 11.4002 20.4903 10.5662 20.0213 9.92468C19.5534 9.28453 18.7881 8.93375 17.9326 8.93375H14.5377C14.5097 8.93375 14.4971 8.92332 14.4925 8.9181C14.4901 8.91528 14.4862 8.90989 14.483 8.89877C14.4799 8.88829 14.4752 8.86437 14.4806 8.82304L14.9005 6.11418C15.1449 4.93415 14.3897 3.71497 13.2788 3.3337C12.7319 3.13148 12.1588 3.17868 11.6872 3.34209C11.2172 3.50494 10.7618 3.81286 10.4765 4.24351L10.4765 4.24352L10.4757 4.2447L10.4756 4.24486L6.99746 9.46104L6.96972 9.50264L7.01132 9.53038L8.25933 10.3625L8.30093 10.3903L8.32867 10.3487L11.8084 5.12999L11.8085 5.12983L11.8101 5.12748C11.8644 5.04545 12.0026 4.92613 12.211 4.85391C12.4142 4.7835 12.5991 4.78724 12.7272 4.83563L12.7402 4.84057L12.7402 4.8406L12.742 4.84119L12.7552 4.84564C12.9534 4.91222 13.1175 5.06224 13.2224 5.24175C13.3275 5.42166 13.3699 5.62575 13.3321 5.79722L13.327 5.82038L13.3269 5.82036L13.3264 5.82348L12.8984 8.58457L12.8984 8.58457L12.8983 8.58522L12.8969 8.59487C12.7429 9.68194 13.5486 10.5338 14.5377 10.5338H17.9326C18.3501 10.5338 18.6033 10.6961 18.7296 10.8689C18.8529 11.0376 18.9256 11.3115 18.7911 11.6909L18.788 11.6999L18.788 11.6999L18.7876 11.7011L16.7393 17.9811L16.7392 17.9811L16.7383 17.9846L16.7318 18.0109C16.6578 18.3091 16.4475 18.6099 16.1316 18.8429C15.8149 19.0765 15.4477 19.2 15.1318 19.2H11.9067C11.73 19.2 11.4862 19.1686 11.2581 19.1029C11.1356 19.0676 11.0432 19.0298 10.9777 18.9969C10.9111 18.9634 10.8748 18.9362 10.862 18.9233L10.8285 18.8895L10.8288 18.8892L10.8238 18.8853L8.15524 16.8028L8.11583 16.772L8.08507 16.8114L7.16223 17.994Z" fill="black" stroke="black" stroke-width="0.1" stroke-miterlimit="10"/>
<path d="M4.46406 9.53676C4.46406 9.05893 4.56891 8.9482 4.58989 8.92862C4.62417 8.89663 4.76704 8.8 5.26406 8.8H6.06406C6.56109 8.8 6.70396 8.89663 6.73823 8.92862C6.75921 8.9482 6.86406 9.05893 6.86406 9.53676V17.4632C6.86406 17.9411 6.75921 18.0518 6.73823 18.0714C6.70396 18.1034 6.56109 18.2 6.06406 18.2H5.26406C4.76704 18.2 4.62417 18.1034 4.58989 18.0714L4.55578 18.1079L4.58989 18.0714C4.56891 18.0518 4.46406 17.9411 4.46406 17.4632V9.53676ZM5.26406 7.2C4.6412 7.2 3.98401 7.30553 3.49823 7.75888C2.99904 8.22476 2.86406 8.88263 2.86406 9.53676V17.4632C2.86406 18.1174 2.99904 18.7752 3.49823 19.2411C3.98401 19.6945 4.6412 19.8 5.26406 19.8H6.06406C6.68692 19.8 7.34412 19.6945 7.82989 19.2411C8.32909 18.7752 8.46406 18.1174 8.46406 17.4632V9.53676C8.46406 8.88263 8.32909 8.22476 7.82989 7.75888C7.34412 7.30553 6.68692 7.2 6.06406 7.2H5.26406Z" fill="black" stroke="black" stroke-width="0.1" stroke-linecap="round" stroke-linejoin="round"/>
</svg>
