<svg width="294" height="288" viewBox="0 0 294 288" fill="none" xmlns="http://www.w3.org/2000/svg">
<path fill-rule="evenodd" clip-rule="evenodd" d="M73.3186 171.823C80.6462 171.823 87.7041 170.669 94.3201 168.531C104.994 192.29 128.864 208.836 156.599 208.836C156.759 208.836 156.918 208.835 157.078 208.834C161.081 242.706 189.894 268.979 224.843 268.979C262.532 268.979 293.084 238.427 293.084 200.739C293.084 186.599 288.783 173.464 281.419 162.57C288.783 151.676 293.084 138.541 293.084 124.401C293.084 86.7129 262.532 56.1606 224.843 56.1606C219.148 56.1606 213.616 56.8582 208.328 58.1726C201.801 27.2904 174.388 4.11328 141.563 4.11328C117.183 4.11328 95.7886 16.8985 83.7196 36.1301C80.3283 35.6114 76.8549 35.3425 73.3186 35.3425C35.6304 35.3425 5.07812 65.8948 5.07812 103.583C5.07812 141.271 35.6304 171.823 73.3186 171.823Z" fill="white"/>
</svg>
