<svg width="25" height="24" viewBox="0 0 25 24" fill="none" xmlns="http://www.w3.org/2000/svg">
<path fill-rule="evenodd" clip-rule="evenodd" d="M12.5 4.75C8.77208 4.75 5.75 7.77208 5.75 11.5C5.75 15.2279 8.77208 18.25 12.5 18.25C16.2279 18.25 19.25 15.2279 19.25 11.5C19.25 7.77208 16.2279 4.75 12.5 4.75ZM4.25 11.5C4.25 6.94365 7.94365 3.25 12.5 3.25C17.0563 3.25 20.75 6.94365 20.75 11.5C20.75 16.0563 17.0563 19.75 12.5 19.75C7.94365 19.75 4.25 16.0563 4.25 11.5Z" fill="#ADADAD"/>
<path fill-rule="evenodd" clip-rule="evenodd" d="M18.4697 17.4697C18.7626 17.1768 19.2374 17.1768 19.5303 17.4697L21.5303 19.4697C21.8232 19.7626 21.8232 20.2374 21.5303 20.5303C21.2374 20.8232 20.7626 20.8232 20.4697 20.5303L18.4697 18.5303C18.1768 18.2374 18.1768 17.7626 18.4697 17.4697Z" fill="#ADADAD"/>
</svg>
