<svg width="78" height="78" viewBox="0 0 78 78" fill="none" xmlns="http://www.w3.org/2000/svg">
<path d="M43.098 28.3975C43.098 39.7415 33.8665 48.9376 22.4787 48.9376C11.091 48.9376 1.85938 39.7415 1.85938 28.3975C1.85938 17.0535 11.091 7.85742 22.4787 7.85742C33.8665 7.85742 43.098 17.0535 43.098 28.3975Z" fill="#E67A4A"/>
<path d="M65.1337 33.0639C64.691 30.1626 63.4066 27.3578 61.2651 25.0398C55.5571 18.861 45.9209 18.4795 39.7422 24.1875C38.8087 25.0499 38.0076 26.002 37.3398 27.0182C31.5924 22.9437 23.588 23.2957 18.2064 28.2673C14.2097 31.9596 12.6387 37.2954 13.5723 42.2759C12.9377 42.7045 12.3274 43.1866 11.7475 43.7223C5.56882 49.4303 5.18727 59.0665 10.8953 65.2452C16.6034 71.4239 26.2395 71.8055 32.4182 66.0974C33.6196 64.9876 34.6017 63.7293 35.3626 62.3768C40.711 64.6555 47.1305 63.7529 51.6776 59.5522C51.7033 59.5284 51.7289 59.5046 51.7544 59.4807C57.5409 64.4272 66.2434 64.3704 71.9729 59.0774C78.1516 53.3693 78.5331 43.7331 72.8251 37.5544C70.684 35.2368 67.9903 33.7348 65.1337 33.0639Z" fill="white" fill-opacity="0.5"/>
</svg>
