<svg width="24" height="24" viewBox="0 0 24 24" fill="none" xmlns="http://www.w3.org/2000/svg">
<path fill-rule="evenodd" clip-rule="evenodd" d="M13.262 3.3808C14.3513 3.75434 15.0911 4.95088 14.8513 6.10527L14.4311 8.81595C14.4247 8.86415 14.4299 8.89519 14.4349 8.91261C14.4401 8.9308 14.4476 8.9427 14.4549 8.95103C14.4691 8.96719 14.4954 8.98375 14.5377 8.98375H17.9326C18.7744 8.98375 19.5237 9.32869 19.9809 9.95419C20.4391 10.581 20.5364 11.3977 20.2555 12.199L18.229 18.4124C18.0466 19.1145 17.591 19.6925 17.0517 20.0903C16.5059 20.4929 15.8224 20.75 15.1318 20.75H11.9067C11.579 20.75 11.191 20.6966 10.8292 20.5924C10.5002 20.4977 10.1004 20.3349 9.80114 20.0534L7.20165 18.0247L8.12448 16.8422L10.793 18.9247L10.8266 18.9585C10.8632 18.9954 10.9938 19.0789 11.2443 19.151C11.4766 19.2179 11.7251 19.25 11.9067 19.25H15.1318C15.4597 19.25 15.8372 19.1222 16.1613 18.8831C16.4847 18.6446 16.703 18.3345 16.7803 18.0229L16.7868 17.9966L18.8351 11.7166L18.8383 11.7076C18.9776 11.3143 18.9041 11.0228 18.77 10.8394C18.6331 10.6521 18.3639 10.4838 17.9326 10.4838H14.5377C13.5786 10.4838 12.7967 9.65837 12.9464 8.60189L12.9478 8.59223L13.3758 5.83114L13.381 5.80799C13.4632 5.43492 13.1943 4.94042 12.7711 4.79825L12.7579 4.7938L12.7448 4.78886C12.6037 4.7355 12.4065 4.73328 12.1947 4.80666C11.978 4.88175 11.8298 5.00701 11.7684 5.0999L11.7668 5.10225L8.28707 10.3209L7.03906 9.48878L10.5173 4.27244C10.5176 4.272 10.5179 4.27157 10.5181 4.27113C10.7963 3.85139 11.2418 3.54935 11.7036 3.38934C12.1669 3.22878 12.7281 3.1832 13.262 3.3808Z" fill="#ADADAD"/>
<path fill-rule="evenodd" clip-rule="evenodd" d="M4.55578 8.89206C4.51998 8.92547 4.41406 9.05313 4.41406 9.53676V17.4632C4.41406 17.9469 4.51998 18.0745 4.55578 18.1079C4.60413 18.1531 4.76302 18.25 5.26406 18.25H6.06406C6.5651 18.25 6.724 18.1531 6.77235 18.1079C6.80814 18.0745 6.91406 17.9469 6.91406 17.4632V9.53676C6.91406 9.05313 6.80814 8.92547 6.77235 8.89206C6.724 8.84694 6.5651 8.75 6.06406 8.75H5.26406C4.76302 8.75 4.60413 8.84694 4.55578 8.89206ZM3.53235 7.79544C4.004 7.35527 4.6451 7.25 5.26406 7.25H6.06406C6.68302 7.25 7.32413 7.35527 7.79578 7.79544C8.27998 8.24732 8.41406 8.88804 8.41406 9.53676V17.4632C8.41406 18.112 8.27998 18.7527 7.79578 19.2046C7.32413 19.6447 6.68302 19.75 6.06406 19.75H5.26406C4.6451 19.75 4.004 19.6447 3.53235 19.2046C3.04814 18.7527 2.91406 18.112 2.91406 17.4632V9.53676C2.91406 8.88804 3.04814 8.24732 3.53235 7.79544Z" fill="#ADADAD"/>
</svg>
